<?xml version="1.0" encoding="UTF-8"?>
<svg version="1.1" viewBox="0 0 916 964" width="1280" height="1280" xmlns="http://www.w3.org/2000/svg">
<path transform="translate(504,48)" d="m0 0h34l16 1 30 6 22 6 19 7 25 12 13 8 11 7 13 11 12 11 11 12 9 11 11 15 11 18 9 16 14 29 9 25 11 33 7 31 3 8 11 12 9 11 9 12 5 11 3 9 5 16 2 10v9l-2 13-2 21-4 20-5 15-12 25-8 15-12 17-8 17-2 8v19l5 25-1 8-8 16-19 39-15 34-7 16-11 21-12 14-8 9-10 7-16 8-29 12-11 7-9 11-10 15-10 16-13 19-7 9-9 10-14 12-9 7-14 10-16 8-18 7-28 8-16 4-11 2-6 2h-42l-15-4-14-6-12-11-9-9-8-7-10-9-10-8-8-9-8-14-14-27-9-21-7-20-12-33-8-16-7-16-11-34-9-27-11-22-13-22-9-19-6-17-3-21-2-12-5-10-10-7-8-9-8-12-5-10-5-15-1-5v-12l2-16 3-14 9-17 6-11 1-7-1-7v-25l6-16 5-17v-18l-2-15v-31l5-22 7-25 7-18 10-19 11-16 9-10 6-8h2v-2l11-9 13-11 10-7 11-9 10-8 19-12 9-6 21-9 24-9 17-5 12-3 20-4 23-5 28-5 14-2z" fill="#130B0A"/>
<path transform="translate(759,319)" d="m0 0h18l8 4 13 11 7 6 10 13 5 10 7 22 1 8 1 26-2 17-7 22-10 25-5 10-8 14-3 6-7 9-9 8-11 9-6 7-10 3-12-1-10-5-11-9-3-13-6-8-2-2-5-1 4 18 10 43 8 31 6 29 4 26 1 8v14l-7 25-8 16-7 12-10 13-9 11-10 7-12 5-11 4-16 3-9 4-8 7-6 5-6 7-3-3-4-35-3-47-1-2-5 1-3 7-1 5v12l3 36 4 30v22l-8 18-8 12-3 4h-2l-2 4-14 11-16 11-8 6-11 7-17 8-6 3-22 6-28 6-24 3h-25l-17-3-9-3h-8l-16-16-8-7-10-9-8-6 1-2-5-10-6-10-9-19-7-16-12-30-8-22-5-17-5-19-10-35-5-17-11-25-5-12-6-10-9-16-9-17-8-20-4-13-2-12-3-11v-3l11 1h14l26-3 21-5 16-8 21-18 13-19 4-2 2 5 1 5v14l-4 14-11 17-7 9-9 11-9 21-3 10v9l2 9 7 12v3h2v3l5 1 7 3h7l5-3 5 1 7 5 8 3h19l15-4 10-5 14-14 15-2 26-3 14-5 6-8 4-10 3-10-1-16-4-8-6-5-3-1h-32l-5 2-2 3 1 6 37 1 3 4 1 3v9l-6 16-6 4-18 4-9 1h-12l-4-5-3-11-1-1h-6l-1 2v17l-2 8-3 1-2 5-3 3-18 7-10 2-8-1-8-3-7-7-5-8-1-3-1-29-5-1-3 1-3 10v21l3 8 4 4v1h-8l-6-5-4-8-1-4v-14l3-9 5-12 9-12 9-10 8-14 4-9 2-4v-8l2-5v-22l-1-13 5-2 6-1h19l18 7 12 7 11 8 6 4 21 8 16 5h38l23-5 16-6 19-10 11-9 9-9 11-14 7-10 6-15 1-6v-10l-1-10 2-2 27-5 48-6 12-2 5-2h3l-1 4h-2l-1 3-2 1 1 7 1 2 4-1 5-6 8-14 5-13 4-15 4-13 6-9 5-6 14-8z" fill="#672E14"/>
<path transform="translate(492,136)" d="m0 0h20l12 3 21 7 14 7 9 6 9 9 5 4 7 10 8 16 10 23 5 18v11l-4 20-7 17-9 20-2 10v12l2 15 4 8v4l-16 4-6 3-5-2-12-6-11-4-18-3-12-1h-31l-18 3-18 5-16 8-12 9-15 14-15 15-15 10-18 4h-18l-17-5-30-15-14-5-19-3-31-1 5-5 9-7 11-6h18l23 4 13 3h10l12-3 2-1v-3l-10-3-14-2-31-7h-22l-10 3-11 7-10 9-2 4 1 5 3 3-20 7-18 8h-2l-4-15 1-19 6-9 4-10 1-5v-12l-3-24-1-5v-31l7-26 10-28 12-26 12-14 12-13 11-8 5-2h8l18 6 16 9 13 8 11 5 24 8h23l13-4 19-9 16-11 15-10 13-8 16-8 21-4z" fill="#E89365"/>
<path transform="translate(518,59)" d="m0 0h17l31 4 32 7 19 6 20 8 23 12 15 11 8 6 13 13 6 8 9 10 11 15 12 19 18 35 8 18 11 33 9 36v6h-20l-17 5-14 7-10 8-6 9-3 5-41 8-27 4-35 4h-11l-4-10-2-6-1-11v-12l2-10 9-20 7-17 4-20v-11l-5-18-10-23-8-16-8-11-10-9-6-5-14-8-16-6-16-5-6-1h-20l-24 4-11 4-16 9-39 26-22 10-8 2h-23l-27-9-17-9-11-7-14-7-13-4h-8l-7 2 2-5h2l2-4 5-5 9-8 11-8 14-10 17-10 46-22 16-5 21-5 37-7 24-4 32-4z" fill="#672E14"/>
<path transform="translate(490,357)" d="m0 0h16l23 3 12 1 17 6 9 7 8 11 9 16 3 11 1 15-4 12-7 12-12 14-7 8-14 10-18 8-23 7-5 1-23 1-22-3-18-6-14-8-21-14-14-6-10-2-21-1-12 3-12 6-7 9-7 10-8 10-16 16-10 7-16 5-21 5-9 1h-15l-18-3-14-5-12-9-7-8-5-10-3-11v-25l3-14 7-14 11-12 11-9 15-8 14-4 16-2h22l15 3 14 6 10 5 19 9 10 5 9 2h13l23-5 14-7 9-7 6-4 10-10 8-7 8-9 15-9 18-8 12-3z" fill="#B49BA0"/>
<path transform="translate(619,402)" d="m0 0h8l4 5 9 7 10 13 9 17 3 15 2 17v26l-3 21-2 17-5 22-6 19-8 21-7 17-6 8-11 8-4 1-11-7-10-7-16-9-11-16-8-10-10-10-14-10-21-10-8-2h-9l-2 3v6l12 2 16 8 14 9 11 9 7 6 1 3-6-2-24-7-24-5-26-3-1-7-1-13-4-8-6-5-3-1h-32l-5 2-2 3 1 6 37 1 3 4 1 3v9l-6 16-6 4-18 4-9 1h-12l-4-5-3-11-1-1h-6l-1 2v17l-2 8-3 1-2 5-3 3-18 7-10 2-8-1-8-3-7-7-5-8-1-3-1-29-5-1-3 1-3 10v21l3 8 4 4v1h-8l-6-5-4-8-1-4v-14l3-9 5-12 9-12 9-10 8-14 4-9 2-4v-8l2-5v-22l-1-13 5-2 6-1h19l18 7 12 7 11 8 6 4 21 8 16 5h38l23-5 16-6 19-10 11-9 9-9 11-14 7-10 6-15 1-6v-10l-1-10 2-2z" fill="#E89365"/>
<path transform="translate(522,609)" d="m0 0 9 1 5 5 3 4 4 20 1 7v18l-3 12-7 17-9 15-12 13-11 9-10 6-30 11-22 5-34 6-12 1h-14l-4-1-29-2-18-5-12-7-12-9v-2l-3-1-9-11-8-10-10-13-6-11-1-8 3-8 6-5 3-1h10l19 3 19 1 26-2 32-5 28-6 36-12 25-11 24-12 13-8z" fill="#140A08"/>
<path transform="translate(759,319)" d="m0 0h18l8 4 13 11 7 6 10 13 5 10 7 22 1 8 1 26-2 17-7 22-10 25-5 10-8 14-3 6-7 9-9 8-11 9-6 7-10 3-12-1-10-5-11-9-3-13-6-8-3-3-9-3-2-3-1-25-4-38-3-24v-14l4 2 1 2 4-1 5-6 8-14 5-13 4-15 4-13 6-9 5-6 14-8z" fill="#E89365"/>
<path transform="translate(504,365)" d="m0 0h9l16 4 11 6 14 11 7 7 5 10 2 18-2 10-4 11-9 10-10 10-14 10-16 7-17 3h-34l-13-3-9-1-10-6-14-14-6-14-1-10 2-9 4-12 6-8 9-10 11-9 14-9 17-7 19-4z" fill="#0D0707"/>
<path transform="translate(242,409)" d="m0 0h21l16 4 11 4 10 5 9 7 8 11 3 7v10l-10 19-9 10-8 8-15 9-10 5-21 6-16 2-14-2-14-5-11-6-10-9-7-11-2-7v-11l4-15 8-14 5-5 7-6 15-8 17-6z" fill="#0E0707"/>
<path transform="translate(329,489)" d="m0 0 3 1 2 9v14l-4 14-11 17-7 9-9 11-9 21-3 10v9l2 9 7 12 1 7-4 7-7 7-9 4-6 1h-22l-5-2-12-21-10-18-9-20-7-21-2-12-3-11v-3l11 1h14l26-3 21-5 16-8 21-18 13-19z" fill="#E99365"/>
<path transform="translate(522,609)" d="m0 0 9 1 5 5 3 4 4 20 1 7v18l-3 12-7 17-9 15-12 13-11 9-10 6-30 11-22 5-34 6-12 1h-14l-4-1-29-2-18-5-12-7-12-9v-2l-3-1-9-11-8-10-10-13-6-11-1-8 3-8 6-5 3-1h10l19 3 19 1 26-2 32-5 28-6 36-12 25-11 24-12 13-8zm5 6-13 9-15 9-21 10-21 8-14 6-20 7-25 5-34 5-32 3h-27l-18-3-7 1-2 2 1 5 11 20 13 19 6 5 7 8 16 9 18 5 11 2 11 1 24-1 23-3 23-5 31-11 19-8 15-10 9-12 7-8 6-16 4-21v-14l-3-25-1-2z" fill="#E89365"/>
<path transform="translate(764,342)" d="m0 0h20l11 4 6 4 8 9 5 12 5 27v11l-2 4-4-2-5-11-6-23-5-12-5-6-12-4h-15l-16 9-6 7-4 8-3 9v10l3 3 23 9 8 3 4 8-1 8-3 6-4 3-8 1h-20l-4 10-1 9 2 4 5 4 3 7-6 12-2 14v5l2 2 5 1h20l10-3 4-4 9-16 5-12 4-13v-23l-3-14-4-10-7-11-13-11-1-6 2-2h7l6 3 10 9 7 11 4 8 4 16 2 18v9l-5 17-6 16-7 14-7 9-11 7-11 2h-19l-13-5-5-5-1-3v-9l4-15 3-7-1-5-8-8v-6l2-10 5-19 3-3 16-1 14 2-1-4-8-2-10-6-9-1-6-4-3-5-1-4v-14l3-12 6-11 9-10 10-7 9-4z" fill="#160A08"/>
<path transform="translate(442,278)" d="m0 0 22 1 26 3 15 4 9 1h11l16-1 7 1 4 5-1 5-5 2-11 1h-22l-24-4-7-2-26-1h-17l-16 4-12 5-10 5-12 3-17 9-20 5-19 2h-29l-19-1-12 2-11 7-8 5-6 2-8-1 1-4 10-10 15-10 13-4 7-1 33-1 13 2h13l12-2 10-5 9-3 14-9 17-9 19-4z" fill="#140A08"/>
<path transform="translate(491,380)" d="m0 0 7 1 6 8 7 9 11 16 7 10 7 11 7 10 1 5-8 5h-2l-2 4-14 7-5 2h-6l-9-12-11-14-16-22-14-22-2-2 1-5 11-5 16-5z" fill="#F9F8F9"/>
<path transform="translate(471,232)" d="m0 0h16l19 3 23 2 5 3 2 5v3h-15l-32-2h-22l-35 3-13 4-13 8-6 4-15 6-7 5-43 7-27 2-16-5-4 1-9 5-18 6-14 8-12 7-4-2-3-5 1-4 6-4 12-6 7-5 28-11 7-1h14l5 3 23-1 18-3 25-5 9-4 10-5 13-11 11-4 10-3 29-3z" fill="#170B08"/>
<path transform="translate(725,557)" d="m0 0 17 4h15l7-3h3l6 27 5 18 5 12-12 25-16 34-9 21-2 1 3-10 1-8-2-24-4-24-7-30-8-37z" fill="#E89365"/>
<path transform="translate(253,416)" d="m0 0h6l10 14 9 10 10 15 12 17-1 5-10 9-9 6-8 4-5-1-12-16-8-11-13-17-11-16-6-11v-3l22-4z" fill="#F9F8F8"/>
<path transform="translate(699,353)" d="m0 0h7l1 1-1 8-5 13-5 3-46 7-17 4-36 6-4-1-12-21 1-2 56-7 16-3 23-3 14-4z" fill="#F6F4F5"/>
<path transform="translate(404,216)" d="m0 0h33l4 2 1 5-2 3-4 1-34 2h-20l-34 2-32 6-14 4-14 5h-7l-3-4 1-5 9-6 7-3 26-5 27-4 5-1h11z" fill="#190C09"/>
<path transform="translate(463,318)" d="m0 0 27 2 25 3h33l6 2-1 5-5 4-18 2h-23l-11-3-16-1h-14l-11 4-10 8-6 3h-7l-3-3 1-5 10-8 16-10z" fill="#160A08"/>
<path transform="translate(255,355)" d="m0 0h22l35 8 15 2 6 3-1 4-8 3-6 1h-10l-25-5-11-2h-18l-11 6-9 7-4 3 30 1v1h-34l-5-4 1-6 7-8 14-10 7-3z" fill="#1A0C09"/>
<path transform="translate(494,554)" d="m0 0h9l13 4 19 10 13 10 12 12 12 17 4 9 4 10v5l-3 2h-7l-4-4-8-20-5-10-17-13-8-6-14-8-10-5-12-3-1-6z" fill="#120908"/>
<path transform="translate(416,772)" d="m0 0h27l19 2 20 6 4 3-1 5-3 2h-7l-14-4-6-1h-24l-22 2-14 2h-6l-3-4 1-5 4-3 13-4z" fill="#0B0607"/>
<path transform="translate(423,676)" d="m0 0h6l3 8 3 14v10l-9 4-13 2h-6l-2-11-1-9v-12l6-3z" fill="#F5F3F3"/>
<path transform="translate(388,684)" d="m0 0h7l1 2 3 26-1 5-5 3-8 2h-7l-3-8-3-23 1-5z" fill="#F2EFF0"/>
<path transform="translate(455,665)" d="m0 0h4l6 21v9l-4 4-2 1-14 1-2-2-4-24 1-4z" fill="#F3F1F1"/>
<path transform="translate(275,273)" d="m0 0h6l4 3-2 8-11 4-13 5-10 6-14 8-4-2-3-5 1-4 6-4 12-6 7-5z" fill="#170B08"/>
<path transform="translate(488,652)" d="m0 0 3 1 4 11 1 6v14l-5 7-3-1v-2l-10-2-2-2-4-18v-7l8-4z" fill="#F4F2F2"/>
<path transform="translate(289,269)" d="m0 0h14l5 3 23-1 17-2-3 2-6 3-2 3h-3v2l-3 2 4 2-27 2-16-5-4 1-5 2 2-7-8-4 5-2z" fill="#662D13"/>
<path transform="translate(325,688)" d="m0 0 15 1 1 3 1 24-3 7-6-1-5-4-2-5-2-15v-9z" fill="#F1EDEE"/>
<path transform="translate(350,688)" d="m0 0h13l4 27v4h-13l-3-2-3-16v-12z" fill="#F0ECEC"/>
<path transform="translate(513,640)" d="m0 0h6l2 13v8l-8 6h-7l-3-5-4-12 1-4z" fill="#F2EFF0"/>
<path transform="translate(445,709)" d="m0 0h10l3 9 1 11-5 3-12 3-2-7-1-5v-8l4-5z" fill="#F3F0F1"/>
<path transform="translate(477,696)" d="m0 0 7 1 2 4 1 6v8l-5 5-9 4h-4l-1-2v-17l6-4z" fill="#F2EFF0"/>
<path transform="translate(304,687)" d="m0 0h15l1 2 1 21-3 1-9-4-3-5-2-8z" fill="#EEE9EA"/>
<path transform="translate(423,722)" d="m0 0h7l2 9v5l-5 2-6 1h-9l-2-10 1-5z" fill="#EEEAEB"/>
<path transform="translate(361,729)" d="m0 0h11l5 3 2 8-1 1h-16l-2-3v-8z" fill="#EBE5E7"/>
<path transform="translate(396,727)" d="m0 0 5 1 2 11-4 2h-11l-2-3v-9z" fill="#E7E1E2"/>
<path transform="translate(503,689)" d="m0 0 3 1 2 5v7l-9 9h-3l-2-12 7-6z" fill="#EBE5E7"/>
<path transform="translate(343,727)" d="m0 0h9l2 1 1 4v8h-6l-5-3-1-3z" fill="#E9E2E4"/>
<path transform="translate(475,362)" d="m0 0h7l-2 2 2 2-2 3-13 4-4 1-2-3 2-2h-6l4-2 9-3z" fill="#CB9786"/>
<path transform="translate(312,713)" d="m0 0h8l1 1v15h-3l-8-11v-4z" fill="#E0D8DA"/>
<path transform="translate(519,673)" d="m0 0h2l-3 10-3 9-2 1-4-10 2-5z" fill="#E5DDDF"/>
<path transform="translate(326,726)" d="m0 0 9 1 3 3 1 5-1 1-10-1-2-4z" fill="#E5DCDD"/>
<path transform="translate(251,326)" d="m0 0 2 1-7 7v2l1 3 4 1-8 1-3-1 1-4z" fill="#612B13"/>
<path transform="translate(331,486)" d="m0 0h2l2 12v14h-1l-2-18-1-4-2-2z" fill="#672E14"/>
<path transform="translate(244,148)" d="m0 0 2 1-14 14v-3l4-5h2v-2z" fill="#4D332C"/>
<path transform="translate(724,554)" d="m0 0 5 2 6 2v1l-9-1 2 5v5l-2-4-2-5z" fill="#672E14"/>
<path transform="translate(756,423)" d="m0 0h5v4h-8l-2-3z" fill="#BE9A94"/>
<path transform="translate(439,715)" d="m0 0h1l3 17 4 2-5 1-2-7-1-5z" fill="#B49B9F"/>
<path transform="translate(693,390)" d="m0 0h3l-1 4-6 1 1-4z" fill="#8B5B4B"/>
<path transform="translate(497,360)" d="m0 0h6l2 4h-7l-1 2-1-3h2z" fill="#E0946E"/>
</svg>
